# xmcd
#
# Track frame offsets: 
#        150
#        22874
#        50174
#        75524
#        105670
#        130794
#        149544
#        173619
#        242128
#        258253
#
# Disc length: 3736 seconds
#
# Revision: 0
# Processed by: cddbd v1.5.2PL0 Copyright (c) Steve Scherf et al.
# Submitted via: ExactAudioCopy v0.95b3
#
DISCID=7d0e960a
DTITLE=Shipra - Blinded By The Light
DYEAR=2014
DGENRE=Electronic
TTITLE0=Sugar And Spice (Extended Version)
TTITLE1=Blinded By The Light (Extended Version)
TTITLE2=Joy (In My Heart) (Extended Version)
TTITLE3=Kung Fu Clan (Extended Version) (feat. Corona Taps)
TTITLE4=Jeans On - Boys And Girls (DJ Mix - Medley)
TTITLE5=Blinded By The Light (Radio Version)
TTITLE6=Jeans On (Extended Version)
TTITLE7=Megamix (Mix Version)
TTITLE8=Blinded By The Light (Instrumental Version)
TTITLE9=Boys And Girls (Instrumental Version)
EXTD=
EXTT0=
EXTT1=
EXTT2=
EXTT3=
EXTT4=
EXTT5=
EXTT6=
EXTT7=
EXTT8=
EXTT9=
PLAYORDER=
